# xmcd CD database file
#
# Track frame offsets:
#	150
#	15150
#	27673
#	42431
#	58424
#	68991
#	90498
#	105606
#	118796
#	136334
#	154866
#	166885
#	180940
#	196769
#
# Disc length: 2786 seconds
#
# Revision: 0
# Processed by: cddbd v1.5.2PL0 Copyright (c) Steve Scherf et al.
# Submitted via: CDex 1.51
#
DISCID=b50ae00e
DTITLE=Roger Cicero - Männersachen
DYEAR=2007
DGENRE=Jazz
TTITLE0=Zieh die Schuh aus
TTITLE1=Kein Mann für eine Frau
TTITLE2=Kompromisse
TTITLE3=Ich atme ein
TTITLE4=Schieß mich doch zum Mond
TTITLE5=Wenn sie Dich fragt
TTITLE6=Fachmann in Sachen Anna
TTITLE7=Ich Idiot ließ Dich gehen
TTITLE8=Mein guter Stern auf allen Wegen
TTITLE9=Murphys Gesetz
TTITLE10=Schön daß Du da bist
TTITLE11=Das ganze Leben ist ein Zoo
TTITLE12=Du willst es doch auch
TTITLE13=So geil Berlin
EXTD=YEAR: 2007
EXTT0=
EXTT1=
EXTT2=
EXTT3=
EXTT4=
EXTT5=
EXTT6=
EXTT7=
EXTT8=
EXTT9=
EXTT10=
EXTT11=
EXTT12=
EXTT13=
PLAYORDER=
